<svg xmlns="http://www.w3.org/2000/svg" viewBox="0 0 1125.19 372.06">
    <defs>
        <style>.cls-1{fill:#231f20;}</style>
    </defs>
    <title>Logo-Ave</title>
    <g id="Layer_2" data-name="Layer 2">
        <g id="Layer_1-2" data-name="Layer 1">
            <path class="cls-1" d="M334.46,315.74l0,1.53-.07,1a45.66,45.66,0,0,1-3.6,16.4,41.8,41.8,0,0,1-5.13,8.83c-5.47,6.59-14.37,12.82-24,12.82-13.26,0-21.54-8.28-21.54-28.17V150c0-103.58-52.21-150-135.9-150C78.72,0,35.63,39.77,35.63,70.43c0,19.06,10.77,38.95,36.46,38.95,27.35,0,39-14.92,39-30.66,0-14.09-7.46-19.06-7.46-33.14,0-29.84,19.89-42.27,40.6-42.27,29.83,0,53,18.23,53,84.52v63c0,18.23-40.6,20.72-86.17,24.86C78.72,179,0,193.9,0,280.91c0,65.46,60.49,87,115.18,87,43.92,0,75.4-18.23,86.18-53.86,5.8,31.49,36.46,53.86,71.26,53.86a84.64,84.64,0,0,0,9.38-.52c20.95-2.33,38.92-11.5,46.95-23l.28-.4a42.15,42.15,0,0,0,4-6.91,45.66,45.66,0,0,0,4.13-17.58l.09-2.17c.06-.57,0-1.15.05-1.7C337.75,313.92,334.74,314.09,334.46,315.74ZM197.21,303.28c0,30.66-26.51,58-67.11,58-25.69,0-48.89-9.11-48.89-80.37,0-76.24,17.4-97,44.74-101.93,24.86-5,52.21-5,71.26-17.4Z" />
            <path class="cls-1" d="M832.39.83C737.09.83,660,83.69,660,184.79s77.06,184,172.36,184c58,0,110.2-31.49,141.69-78.72.83-1.66-1.66-2.48-2.48-1.66-29,45.58-80.38,77.07-139.21,77.07-21.55,0-38.95-5-53-19.06-23.2-24-33.14-62.15-33.14-161.58V164.07h234.5a2.2,2.2,0,0,0,2.49-2.49C983.2,99.44,936,.83,832.39.83ZM746.21,160.75c1.65-72.09,11.6-116,33.14-137.55,14.09-14.08,31.49-19.06,53-19.06,18.23,0,33.14,5,45.57,19.06,17.4,21.55,25.69,65.46,27.34,137.55Z" />
            <path class="cls-1" d="M681.06,8.29H575c-1.66,0-1.66,3.31,0,3.31h51.88l-95.8,258.52L424,11.61h48.28c1.66,0,1.66-3.31,0-3.31H287.46a1.67,1.67,0,1,0,0,3.31h44.43L494.62,367.08c.83,2.49,3.32,2.49,4.15,0L617.26,45.58l12.83-34h51C682.73,11.61,682.72,8.29,681.06,8.29Z" />
            <path class="cls-1" d="M1079.61,274.28c-25.69,0-46.4,22.37-46.4,48.89,0,27.34,20.71,48.89,46.4,48.89,24.86,0,45.58-21.55,45.58-48.89C1125.19,296.65,1104.47,274.28,1079.61,274.28Z" />
        </g>
    </g>
</svg>